Genre:Comedy | Family 
Language:English
IMDb:http://www.imdb.com/title/tt0492389/
Source:BluRay.x264-Felony
............................................
General
Complete name : Furry.Vengeance.2010.BRRip.H264.FEEL-FREE.mp4
Format : MPEG-4
Format profile : Base Media
Codec ID : isom
File size : 1.74 GiB
Duration : 1h 31mn
Overall bit rate : 2 724 Kbps
.............................................
Video
ID : 2
Format : AVC
Format/Info : Advanced Video Codec
Format profile : Baseline@L1.3
Format settings, CABAC : No
Format settings, ReFrames : 1 frame
Codec ID : avc1
Codec ID/Info : Advanced Video Coding
Duration : 1h 31mn
Bit rate mode : Variable
Bit rate : 2 527 Kbps
Width : 1 280 pixels
Height : 720 pixels
Display aspect ratio : 16:9
Frame rate mode : Constant
Frame rate : 23.976 fps
Resolution : 24 bits
Colorimetry : 4:2:0
Scan type : Progressive
Bits/(Pixel*Frame) : 0.114
Stream size : 1.61 GiB (93%)
Language : English
..............................................
Audio
ID : 1
Format : AAC
Format/Info : Advanced Audio Codec
Format version : Version 4
Format profile : LC
Format settings, SBR : No
Codec ID : 40
Duration : 1h 31mn
Bit rate mode : Constant
Bit rate : 192 Kbps
Channel(s) : 6 channels
Channel positions : Front: L C R, Rear: L R, LFE
Sampling rate : 48.0 KHz
Resolution : 16 bits
Stream size : 126 MiB (7%)
Language : English
..............................................
Plot:
n the Oregon wilderness, a real estate developer's new housing subdivision faces a unique group of protesters, local woodland creatures who don't want their homes disturbed.
...................................................
Screenshots: 
http://postimg.com/image/20000/19136.jpg 
http://postimg.com/image/20000/19137.jpg 
http://postimg.com/image/20000/19138.jpg
.........................................................